<?xml version="1.0" encoding="utf-8"?>
<!-- Generator: Adobe Illustrator 14.0.0, SVG Export Plug-In  -->
<!DOCTYPE svg PUBLIC "-//W3C//DTD SVG 1.1//EN" "http://www.w3.org/Graphics/SVG/1.1/DTD/svg11.dtd" [
	<!ENTITY ns_flows "http://ns.adobe.com/Flows/1.0/">
]>
<svg version="1.1"
	 xmlns="http://www.w3.org/2000/svg" xmlns:xlink="http://www.w3.org/1999/xlink" xmlns:a="http://ns.adobe.com/AdobeSVGViewerExtensions/3.0/"
	 x="0px" y="0px" width="178px" height="66px" viewBox="-5.447 -8.447 178 66" enable-background="new -5.447 -8.447 178 66"
	 xml:space="preserve">
<defs>
</defs>
<path fill-rule="evenodd" clip-rule="evenodd" fill="#F17516" d="M149.938,13.563c-1.571-2.681-10.472-2.787-35.891,4.392
	c0,0,25.88-5.87,29.274-0.083c1.049,1.791-0.053,4.7-4.747,9.243C138.575,27.116,152.262,17.526,149.938,13.563L149.938,13.563z
	 M167.538,3.421c-1.186-2.02-4.418-3.323-10.652-3.416c-3.102-0.047-6.95,0.204-11.659,0.817
	c-11.351,1.474-27.705,5.039-50.71,11.537c0,0,52.654-11.945,59.56-0.17c2.136,3.643-0.108,9.559-9.656,18.806
	C144.42,30.995,172.268,11.482,167.538,3.421"/>
<path fill="#7F6B8F" d="M14.007,34.014l-0.14,0.66c-0.561,2.64-1.789,2.82-4.256,2.82c-3.566,0-3.44-1.288-2.727-4.644l0.745-3.505
	c0.682-3.206,1.234-4.255,4.641-4.255c2.033,0,3.406,0.15,3.19,2.148l-0.184,0.865h6.161l0.185-0.87
	c1.313-6.75-1.431-7.38-7.605-7.38c-6.594,0-10.811,1.086-12.393,8.53l-1.238,5.824c-1.748,8.224,2.655,8.523,8.772,8.523
	c2.609,0,5.095,0.015,7.491-1.666c2.402-1.71,2.905-3.93,3.428-6.39l0.14-0.66L14.007,34.014z M35.18,38.683l0.351,3.852h6.118
	l-2.054-22.501H30.48L18.95,42.534h6.237l1.928-3.852H35.18z M34.962,34.284h-5.58l4.803-9.751h0.06L34.962,34.284z M53.888,28.677
	c-1.561-0.12-2.416-0.181-2.033-1.979c0.268-1.26,0.678-1.921,3.915-1.921c2.398,0,3.358,0,2.867,2.307h5.782l0.198-0.93
	c1.32-6.21-2.866-6.3-7.789-6.3c-5.883,0-9.604,0.423-10.98,6.893c-1.375,6.472,1.863,6.441,7.316,6.833l1.298,0.089
	c2.775,0.178,3.113,0.147,2.703,2.077c-0.397,1.868-1.365,2.046-4.183,2.046c-2.939,0-3.727-0.24-3.23-2.577H43.97
	c-1.569,7.38,2.224,7.5,7.966,7.5c9.924,0,10.522-3.659,11.313-7.378c1.097-5.159-0.373-5.999-6.915-6.479L53.888,28.677z
	 M78.68,38.683l0.351,3.852h6.118l-2.054-22.501H73.98L62.45,42.534h6.237l1.928-3.852H78.68z M78.462,34.284h-5.58l4.803-9.751
	h0.06L78.462,34.284z M94.948,31.344l1.291-6.074h4.658c1.984,0,2.374,0.57,1.948,2.573c-0.54,2.543-0.678,3.5-3.255,3.5H94.948z
	 M86.573,42.534h5.996l1.267-5.954h4.642c1.797,0,2.275,1.137,1.854,2.813l-0.668,3.142h5.995l0.964-4.53
	c0.542-2.55-0.759-3.9-3.193-3.99l0.051-0.24c4.525-0.989,4.991-3.18,5.788-6.93c1.193-5.61-1.128-6.72-6.309-6.81H91.355
	L86.573,42.534z M119.825,20.033h-5.995l-4.783,22.501h5.996L119.825,20.033z M132.681,38.683l0.351,3.852h6.118l-2.054-22.501
	h-9.115l-11.53,22.501h6.237l1.928-3.852H132.681z M132.463,34.284h-5.58l4.803-9.751h0.061"/>
<path fill="#F17516" d="M13.819,47.869h2.177l0.401-1.886H9.863l-0.401,1.886h2.109l-1.353,6.364h2.248L13.819,47.869z
	 M17.612,50.626c0.182-0.757,0.42-0.91,1.077-0.91c0.625,0,0.926,0.055,0.744,0.91H17.612z M19.145,52.309
	c-0.128,0.603-0.516,0.668-1.098,0.668c-0.78,0-0.871-0.296-0.657-1.304h3.749l0.069-0.323c0.507-2.383-0.016-2.996-2.196-2.996
	c-2.335,0-3.002,0.748-3.481,2.998c-0.464,2.185-0.082,2.986,2.209,2.986c0.841,0,1.563-0.067,2.121-0.349
	c0.56-0.291,0.955-0.796,1.143-1.682L19.145,52.309z M25.373,51.924c-0.173,0.814-0.266,1.053-1.076,1.053
	c-0.675,0-0.789-0.148-0.489-1.56c0.293-1.377,0.523-1.572,1.165-1.572c0.379,0,0.58,0.04,0.683,0.15
	c0.103,0.109,0.098,0.278,0.008,0.559h1.927c0.431-2.026-0.661-2.2-2.313-2.2c-2.353,0-2.962,1.016-3.384,2.998
	c-0.49,2.306-0.109,2.986,2.112,2.986c1.018,0,1.719-0.057,2.228-0.392c0.518-0.323,0.833-0.928,1.066-2.023L25.373,51.924z
	 M31.308,45.983h-1.927l-1.754,8.25h1.927l0.696-3.271c0.154-0.726,0.401-1.246,1.211-1.246c0.588,0,0.675,0.284,0.563,0.861
	l-0.778,3.656h1.927l0.855-4.019c0.266-1.251-0.181-1.861-1.441-1.861c-0.88,0-1.486,0.239-1.958,1.184h-0.076L31.308,45.983z
	 M35.766,48.421l-1.236,5.813h1.927l0.696-3.271c0.154-0.726,0.401-1.246,1.209-1.246c0.587,0,0.674,0.284,0.562,0.861l-0.778,3.656
	h1.927l0.855-4.019c0.266-1.251-0.181-1.861-1.44-1.861c-0.879,0-1.482,0.233-1.949,1.152h-0.076l0.23-1.085H35.766z M45.239,48.354
	c-2.43,0-3.036,0.604-3.545,2.998c-0.497,2.34-0.113,2.986,2.273,2.986c2.419,0,3.043-0.579,3.554-2.986
	C48.047,48.878,47.68,48.354,45.239,48.354L45.239,48.354z M44.983,49.716c0.871,0,0.9,0.275,0.611,1.637
	c-0.289,1.362-0.433,1.624-1.304,1.624c-0.904,0-0.957-0.263-0.668-1.624C43.912,49.99,44.079,49.716,44.983,49.716L44.983,49.716z
	 M51.509,45.983h-1.927l-1.754,8.25h1.927L51.509,45.983z M54.939,48.354c-2.43,0-3.036,0.604-3.545,2.998
	c-0.497,2.34-0.113,2.986,2.273,2.986c2.419,0,3.043-0.579,3.554-2.986C57.747,48.878,57.38,48.354,54.939,48.354L54.939,48.354z
	 M54.683,49.716c0.871,0,0.9,0.275,0.611,1.637c-0.289,1.362-0.433,1.624-1.304,1.624c-0.904,0-0.957-0.263-0.668-1.624
	C53.612,49.99,53.779,49.716,54.683,49.716L54.683,49.716z M60.445,52.872c-0.796,0-0.891-0.261-0.62-1.537
	c0.304-1.431,0.43-1.62,1.291-1.62c0.775,0,0.934,0.213,0.635,1.62C61.525,52.398,61.349,52.872,60.445,52.872L60.445,52.872z
	 M57.406,54.741c-0.331,1.869,0.218,2.095,2.273,2.095c2.232,0,2.971-0.666,3.434-2.841l1.184-5.572H62.37l-0.144,1.032H62.15
	c-0.039-0.899-0.589-1.101-1.402-1.101c-1.987,0-2.45,1.096-2.85,2.979c-0.351,1.649-0.441,2.9,1.6,2.9
	c0.724,0,1.377-0.23,1.771-0.945h0.066l-0.255,1.198c-0.171,0.804-0.374,0.936-1.186,0.936c-0.22,0-0.426-0.011-0.562-0.089
	c-0.146-0.089-0.207-0.269-0.137-0.593H57.406z M70.893,48.459h-1.93l-1.93,4.696h-0.022l-0.141-4.696h-1.973l0.482,5.774h1.03
	c-0.173,0.659-0.461,1.24-1.25,1.24c-0.11,0-0.217-0.01-0.325-0.019l-0.286,1.346c0.217,0.011,0.42,0.034,0.639,0.034
	c1.6,0,2.274-0.541,2.916-2.066L70.893,48.459z M79.205,52.382c-0.414,0.177-0.845,0.177-1.176,0.177
	c-1.006,0-1.572,0.015-1.336-1.096c0.087-0.407,0.188-0.924,0.727-0.979L79.205,52.382z M80.867,54.271l1.234-1.184l-0.737-0.83
	c0.167-0.255,0.303-0.542,0.36-0.809l0.346-1.627h-1.713l-0.233,1.097l-1.655-1.815c-0.223-0.254-0.349-0.442-0.27-0.819
	c0.127-0.597,0.322-0.73,0.889-0.73c0.455,0,0.692,0.033,0.795,0.177s0.071,0.396-0.111,0.859h1.927l0.09-0.424
	c0.489-2.021-0.472-2.288-2.35-2.288c-1.834,0-2.832,0.322-3.237,2.232c-0.146,0.688-0.088,0.954,0.354,1.409
	c-1.279,0.022-1.725,1.121-1.949,2.175c-0.514,2.42,0.917,2.643,3.035,2.643c0.905,0,1.898,0,2.609-0.752L80.867,54.271z
	 M90.554,49.112c-0.572-0.045-0.885-0.066-0.743-0.736c0.1-0.47,0.249-0.716,1.408-0.716c0.859,0,1.203,0,1.009,0.908h2.141
	l0.074-0.346c0.491-2.31-1.046-2.344-2.854-2.344c-2.161,0-3.529,0.156-4.037,2.547c-0.509,2.391,0.679,2.38,2.677,2.524
	l0.477,0.033c1.016,0.068,1.141,0.058,0.983,0.792c-0.152,0.713-0.505,0.781-1.532,0.781c-1.07,0-1.356-0.094-1.161-1.008h-2.142
	c-0.584,2.744,0.808,2.789,2.915,2.789c3.643,0,3.914-1.362,4.208-2.747c0.409-1.921-0.13-2.233-2.527-2.412L90.554,49.112z
	 M96.813,50.626c0.182-0.757,0.42-0.91,1.077-0.91c0.625,0,0.926,0.055,0.744,0.91H96.813z M98.346,52.309
	c-0.128,0.603-0.516,0.668-1.098,0.668c-0.78,0-0.871-0.296-0.657-1.304h3.749l0.068-0.323c0.508-2.383-0.016-2.996-2.195-2.996
	c-2.335,0-3.002,0.748-3.481,2.998c-0.464,2.185-0.082,2.986,2.209,2.986c0.841,0,1.563-0.067,2.121-0.349
	c0.561-0.291,0.955-0.796,1.144-1.682L98.346,52.309z M104.47,50.973h1.713l0.097-0.457c0.228-1.07,0.35-2.162-0.974-2.162
	c-0.705,0-1.258,0.265-1.657,0.952h-0.077l0.181-0.847h-1.842l-1.228,5.774h1.927l0.741-3.483c0.101-0.476,0.327-0.931,0.887-0.931
	c0.507,0,0.38,0.459,0.291,0.872L104.47,50.973z M112.693,48.459h-1.962l-1.908,4.518h-0.055l-0.087-4.518h-1.984l0.37,5.774h2.977
	L112.693,48.459z M115.083,48.459h-1.928l-1.228,5.774h1.927L115.083,48.459z M115.609,45.983h-1.927l-0.289,1.362h1.927
	L115.609,45.983z M118.773,51.924c-0.173,0.814-0.266,1.053-1.076,1.053c-0.675,0-0.789-0.148-0.488-1.56
	c0.293-1.377,0.522-1.572,1.165-1.572c0.379,0,0.58,0.04,0.683,0.15c0.103,0.109,0.098,0.278,0.008,0.559h1.927
	c0.432-2.026-0.66-2.2-2.313-2.2c-2.354,0-2.962,1.016-3.384,2.998c-0.49,2.306-0.109,2.986,2.111,2.986
	c1.019,0,1.72-0.057,2.229-0.392c0.518-0.323,0.833-0.928,1.065-2.023L118.773,51.924z M123.413,50.626
	c0.182-0.757,0.42-0.91,1.076-0.91c0.625,0,0.927,0.055,0.744,0.91H123.413z M124.945,52.309c-0.128,0.603-0.516,0.668-1.098,0.668
	c-0.78,0-0.871-0.296-0.657-1.304h3.749l0.069-0.323c0.507-2.383-0.017-2.996-2.196-2.996c-2.335,0-3.002,0.748-3.48,2.998
	c-0.465,2.185-0.082,2.986,2.209,2.986c0.841,0,1.563-0.067,2.121-0.349c0.56-0.291,0.954-0.796,1.143-1.682"/>
</svg>
